<svg width="24" height="24" viewBox="0 0 24 24" fill="none" xmlns="http://www.w3.org/2000/svg">
<g id="Iconsax/Bold/eye">
<path id="Vector" d="M21.25 9.14993C18.94 5.51993 15.56 3.42993 12 3.42993C10.22 3.42993 8.49 3.94993 6.91 4.91993C5.33 5.89993 3.91 7.32993 2.75 9.14993C1.75 10.7199 1.75 13.2699 2.75 14.8399C5.06 18.4799 8.44 20.5599 12 20.5599C13.78 20.5599 15.51 20.0399 17.09 19.0699C18.67 18.0899 20.09 16.6599 21.25 14.8399C22.25 13.2799 22.25 10.7199 21.25 9.14993ZM12 16.0399C9.76 16.0399 7.96 14.2299 7.96 11.9999C7.96 9.76993 9.76 7.95993 12 7.95993C14.24 7.95993 16.04 9.76993 16.04 11.9999C16.04 14.2299 14.24 16.0399 12 16.0399Z" fill="url(#paint0_linear_131_625)"/>
<path id="Vector_2" d="M11.9981 9.13989C11.2409 9.13989 10.5147 9.44069 9.97928 9.9761C9.44386 10.5115 9.14307 11.2377 9.14307 11.9949C9.14307 12.7521 9.44386 13.4783 9.97928 14.0137C10.5147 14.5491 11.2409 14.8499 11.9981 14.8499C13.5681 14.8499 14.8581 13.5699 14.8581 11.9999C14.8581 10.4299 13.5681 9.13989 11.9981 9.13989Z" fill="url(#paint1_linear_131_625)"/>
</g>
<defs>
<linearGradient id="paint0_linear_131_625" x1="22" y1="20.5599" x2="1.06509" y2="13.4384" gradientUnits="userSpaceOnUse">
<stop stop-color="#B057F4"/>
<stop offset="1" stop-color="#F77CA9"/>
</linearGradient>
<linearGradient id="paint1_linear_131_625" x1="14.8581" y1="14.8499" x2="8.70677" y2="13.0561" gradientUnits="userSpaceOnUse">
<stop stop-color="#B057F4"/>
<stop offset="1" stop-color="#F77CA9"/>
</linearGradient>
</defs>
</svg>
