<svg width="40" height="34" viewBox="0 0 40 34" fill="none" xmlns="http://www.w3.org/2000/svg">
<g id="Group 1">
<path id="Vector" d="M14.4131 0.762948C17.7776 1.28519 20.5293 3.34282 22.0747 6.11925C24.3779 3.94016 27.6165 2.81247 30.981 3.33471C36.7871 4.23599 40.7689 9.70943 39.8745 15.56C37.8397 28.8697 17.9096 33.3634 17.9096 33.3634C17.9096 33.3634 0.245625 23.0341 2.28047 9.72447C3.17492 3.87387 8.60687 -0.138337 14.4131 0.762948Z" fill="#FF4C4C"/>
<path id="Vector_2" d="M5.93285 12.0839C8.39019 11.4373 10.8793 12.0249 12.7538 13.4648C13.6903 11.2853 15.5764 9.54638 18.0338 8.89983C22.2745 7.78395 26.6102 10.3435 27.7176 14.6167C30.2369 24.338 17.9106 33.3637 17.9106 33.3637C17.9106 33.3637 2.77855 31.5629 0.259262 21.8417C-0.84808 17.5684 1.69199 13.1998 5.93285 12.0839Z" fill="#FFCCD7"/>
<path id="Vector_3" d="M5.93306 12.0838C7.4272 11.6907 8.93275 11.7545 10.3051 12.1881C6.2822 13.4504 3.91635 17.6909 4.99205 21.8415C6.59564 28.0295 13.2882 31.5785 17.9414 33.3409C17.9216 33.3557 17.9109 33.3636 17.9109 33.3636C17.9109 33.3636 2.77885 31.5627 0.259556 21.8415C-0.847866 17.5684 1.69221 13.1997 5.93306 12.0838Z" fill="#FFB3CB"/>
</g>
</svg>
