<svg width="24" height="24" viewBox="0 0 24 24" fill="none" xmlns="http://www.w3.org/2000/svg">
<g id="Icon Frame">
<path id="Subtract" fill-rule="evenodd" clip-rule="evenodd" d="M2 12.0004C2 6.47758 6.47715 2.00043 12 2.00043C17.5228 2.00043 22 6.47758 22 12.0004C22 17.5233 17.5228 22.0004 12 22.0004C6.47715 22.0004 2 17.5233 2 12.0004ZM9 8.00043C8.17157 8.00043 7.5 8.672 7.5 9.50043V9.51043C7.5 10.3389 8.17157 11.0104 9 11.0104H9.01C9.83843 11.0104 10.51 10.3389 10.51 9.51043V9.50043C10.51 8.672 9.83843 8.00043 9.01 8.00043H9ZM15 8.00043C14.1716 8.00043 13.5 8.672 13.5 9.50043V9.51043C13.5 10.3389 14.1716 11.0104 15 11.0104H15.01C15.8384 11.0104 16.51 10.3389 16.51 9.51043V9.50043C16.51 8.672 15.8384 8.00043 15.01 8.00043H15ZM8.03443 13.1348C8.51249 12.8583 9.12422 13.0216 9.40076 13.4997C9.92099 14.399 10.8909 15.0004 12 15.0004C13.1092 15.0004 14.0791 14.399 14.5993 13.4997C14.8758 13.0216 15.4876 12.8583 15.9656 13.1348C16.4437 13.4114 16.607 14.0231 16.3305 14.5012C15.4675 15.993 13.852 17.0004 12 17.0004C10.1481 17.0004 8.53256 15.993 7.66955 14.5012C7.39301 14.0231 7.55637 13.4114 8.03443 13.1348Z" fill="url(#paint0_linear_266_1408)"/>
</g>
<defs>
<linearGradient id="paint0_linear_266_1408" x1="22" y1="22.0004" x2="0.470208" y2="15.7275" gradientUnits="userSpaceOnUse">
<stop stop-color="#B057F4"/>
<stop offset="1" stop-color="#F77CA9"/>
</linearGradient>
</defs>
</svg>
