<svg width="24" height="24" viewBox="0 0 24 24" fill="none" xmlns="http://www.w3.org/2000/svg">
<g id="Iconsax/Bold/messages3">
<path id="Vector" d="M15.59 12.4V16.47C15.59 16.83 15.55 17.17 15.46 17.48C15.09 18.95 13.87 19.87 12.19 19.87H9.47L6.45 21.88C6.34876 21.9493 6.23046 21.9895 6.10796 21.9963C5.98547 22.003 5.86346 21.9761 5.75521 21.9184C5.64695 21.8606 5.5566 21.7743 5.49398 21.6688C5.43135 21.5633 5.39885 21.4427 5.4 21.32V19.87C4.38 19.87 3.53 19.53 2.94 18.94C2.34 18.34 2 17.49 2 16.47V12.4C2 10.5 3.18 9.19 5 9.02C5.13 9.01 5.26 9 5.4 9H12.19C14.23 9 15.59 10.36 15.59 12.4Z" fill="url(#paint0_linear_131_150)"/>
<path id="Vector_2" d="M17.75 15.6C19.02 15.6 20.09 15.18 20.83 14.43C21.58 13.69 22 12.62 22 11.35V6.25C22 3.9 20.1 2 17.75 2H9.25C6.9 2 5 3.9 5 6.25V7C5 7.28 5.22 7.5 5.5 7.5H12.19C14.9 7.5 17.09 9.69 17.09 12.4V15.1C17.09 15.38 17.31 15.6 17.59 15.6H17.75Z" fill="url(#paint1_linear_131_150)"/>
</g>
<defs>
<linearGradient id="paint0_linear_131_150" x1="15.59" y1="21.9973" x2="1.06651" y2="17.5728" gradientUnits="userSpaceOnUse">
<stop stop-color="#B057F4"/>
<stop offset="1" stop-color="#F77CA9"/>
</linearGradient>
<linearGradient id="paint1_linear_131_150" x1="22" y1="15.6" x2="4.47119" y2="9.21605" gradientUnits="userSpaceOnUse">
<stop stop-color="#B057F4"/>
<stop offset="1" stop-color="#F77CA9"/>
</linearGradient>
</defs>
</svg>
