<svg width="24" height="24" viewBox="0 0 24 24" fill="none" xmlns="http://www.w3.org/2000/svg">
<g id="Iconsax/Bold/send">
<path id="Vector" d="M18.07 8.50943L9.51002 4.22943C3.76002 1.34943 1.40002 3.70943 4.28002 9.45943L5.15002 11.1994C5.40002 11.7094 5.40002 12.2994 5.15002 12.8094L4.28002 14.5394C1.40002 20.2894 3.75002 22.6494 9.51002 19.7694L18.07 15.4894C21.91 13.5694 21.91 10.4294 18.07 8.50943ZM14.84 12.7494H9.44002C9.03002 12.7494 8.69002 12.4094 8.69002 11.9994C8.69002 11.5894 9.03002 11.2494 9.44002 11.2494H14.84C15.25 11.2494 15.59 11.5894 15.59 11.9994C15.59 12.4094 15.25 12.7494 14.84 12.7494Z" fill="url(#paint0_linear_266_1419)"/>
</g>
<defs>
<linearGradient id="paint0_linear_266_1419" x1="20.95" y1="20.9981" x2="1.66416" y2="15.4093" gradientUnits="userSpaceOnUse">
<stop stop-color="#B057F4"/>
<stop offset="1" stop-color="#F77CA9"/>
</linearGradient>
</defs>
</svg>
