<svg width="40" height="34" viewBox="0 0 40 34" fill="none" xmlns="http://www.w3.org/2000/svg">
<g id="Group 2">
<path id="Vector" d="M25.5869 0.762948C22.2224 1.28519 19.4707 3.34282 17.9253 6.11925C15.6221 3.94016 12.3836 2.81247 9.01902 3.33471C3.21286 4.23599 -0.768938 9.70944 0.125514 15.56C2.16028 28.8698 22.0904 33.3634 22.0904 33.3634C22.0904 33.3634 39.7544 23.0341 37.7195 9.72447C36.8251 3.87387 31.3931 -0.138337 25.5869 0.762948Z" fill="#FF4C4C"/>
<path id="Vector_2" d="M34.0672 12.0839C31.6098 11.4373 29.1207 12.0249 27.2462 13.4648C26.3097 11.2853 24.4236 9.54638 21.9662 8.89983C17.7255 7.78395 13.3898 10.3435 12.2824 14.6167C9.76312 24.338 22.0894 33.3637 22.0894 33.3637C22.0894 33.3637 37.2215 31.5629 39.7407 21.8417C40.8481 17.5684 38.308 13.1998 34.0672 12.0839Z" fill="#FFCCD7"/>
<path id="Vector_3" d="M34.0669 12.0838C32.5728 11.6907 31.0673 11.7545 29.6949 12.1881C33.7178 13.4504 36.0837 17.6909 35.008 21.8415C33.4044 28.0295 26.7118 31.5785 22.0586 33.3409C22.0784 33.3557 22.0891 33.3636 22.0891 33.3636C22.0891 33.3636 37.2212 31.5627 39.7404 21.8415C40.8479 17.5684 38.3078 13.1997 34.0669 12.0838Z" fill="#FFB3CB"/>
</g>
</svg>
